<mxfile host="app.diagrams.net" modified="2023-09-20T19:45:16.117Z" agent="Mozilla/5.0 (Macintosh; Intel Mac OS X 10_15_7) AppleWebKit/537.36 (KHTML, like Gecko) Chrome/116.0.0.0 Safari/537.36" etag="dM_D7KBgSUWG17JTy7u1" version="21.7.5" type="github">
  <diagram name="Page-1" id="T-q-QK6WSlPgKNuvUnEv">
    <mxGraphModel dx="530" dy="357" grid="1" gridSize="10" guides="1" tooltips="1" connect="1" arrows="1" fold="1" page="1" pageScale="1" pageWidth="850" pageHeight="1100" background="#000000" math="0" shadow="0">
      <root>
        <mxCell id="0" />
        <mxCell id="1" parent="0" />
        <mxCell id="DTFmvOom9XdBedxrRoef-2" value="Comment Author" style="shape=umlActor;verticalLabelPosition=bottom;verticalAlign=top;html=1;outlineConnect=0;strokeColor=#FFFFFF;fontColor=#FFFFFF;" vertex="1" parent="1">
          <mxGeometry x="411" y="310" width="30" height="60" as="geometry" />
        </mxCell>
        <mxCell id="DTFmvOom9XdBedxrRoef-3" value="Authenticated User" style="shape=umlActor;verticalLabelPosition=bottom;verticalAlign=top;html=1;outlineConnect=0;strokeColor=#FFFFFF;fontColor=#FFFFFF;" vertex="1" parent="1">
          <mxGeometry x="320" y="190" width="30" height="60" as="geometry" />
        </mxCell>
        <mxCell id="DTFmvOom9XdBedxrRoef-4" value="Attendee" style="shape=umlActor;verticalLabelPosition=bottom;verticalAlign=top;html=1;outlineConnect=0;strokeColor=#FFFFFF;fontColor=#FFFFFF;" vertex="1" parent="1">
          <mxGeometry x="321" y="310" width="30" height="60" as="geometry" />
        </mxCell>
        <mxCell id="DTFmvOom9XdBedxrRoef-7" value="Event Organizer" style="shape=umlActor;verticalLabelPosition=bottom;verticalAlign=top;html=1;outlineConnect=0;strokeColor=#FFFFFF;fontColor=#FFFFFF;" vertex="1" parent="1">
          <mxGeometry x="231" y="310" width="30" height="60" as="geometry" />
        </mxCell>
        <mxCell id="DTFmvOom9XdBedxrRoef-11" value="Visitant" style="shape=umlActor;verticalLabelPosition=bottom;verticalAlign=top;html=1;outlineConnect=0;fontColor=#FFFFFF;strokeColor=#FFFFFF;" vertex="1" parent="1">
          <mxGeometry x="180" y="190" width="30" height="60" as="geometry" />
        </mxCell>
        <mxCell id="DTFmvOom9XdBedxrRoef-12" value="User" style="shape=umlActor;verticalLabelPosition=bottom;verticalAlign=top;html=1;outlineConnect=0;strokeColor=#FFFFFF;fontColor=#FFFFFF;" vertex="1" parent="1">
          <mxGeometry x="250" y="80" width="30" height="60" as="geometry" />
        </mxCell>
        <mxCell id="DTFmvOom9XdBedxrRoef-13" value="Administrator" style="shape=umlActor;verticalLabelPosition=bottom;verticalAlign=top;html=1;outlineConnect=0;strokeColor=#FFFFFF;fontColor=#FFFFFF;" vertex="1" parent="1">
          <mxGeometry x="390" y="80" width="30" height="60" as="geometry" />
        </mxCell>
        <mxCell id="DTFmvOom9XdBedxrRoef-16" value="" style="endArrow=classic;html=1;rounded=0;strokeColor=#FFFFFF;" edge="1" parent="1">
          <mxGeometry width="50" height="50" relative="1" as="geometry">
            <mxPoint x="420" y="310" as="sourcePoint" />
            <mxPoint x="370" y="270" as="targetPoint" />
          </mxGeometry>
        </mxCell>
        <mxCell id="DTFmvOom9XdBedxrRoef-17" value="" style="endArrow=classic;html=1;rounded=0;exitX=0.5;exitY=0;exitDx=0;exitDy=0;exitPerimeter=0;strokeColor=#FFFFFF;" edge="1" parent="1" source="DTFmvOom9XdBedxrRoef-4">
          <mxGeometry width="50" height="50" relative="1" as="geometry">
            <mxPoint x="330" y="310" as="sourcePoint" />
            <mxPoint x="336" y="270" as="targetPoint" />
          </mxGeometry>
        </mxCell>
        <mxCell id="DTFmvOom9XdBedxrRoef-18" value="" style="endArrow=classic;html=1;rounded=0;strokeColor=#FFFFFF;" edge="1" parent="1">
          <mxGeometry width="50" height="50" relative="1" as="geometry">
            <mxPoint x="250" y="310" as="sourcePoint" />
            <mxPoint x="290" y="270" as="targetPoint" />
          </mxGeometry>
        </mxCell>
        <mxCell id="DTFmvOom9XdBedxrRoef-19" value="" style="endArrow=classic;html=1;rounded=0;strokeColor=#FFFFFF;" edge="1" parent="1">
          <mxGeometry width="50" height="50" relative="1" as="geometry">
            <mxPoint x="330" y="190" as="sourcePoint" />
            <mxPoint x="290" y="150" as="targetPoint" />
          </mxGeometry>
        </mxCell>
        <mxCell id="DTFmvOom9XdBedxrRoef-20" value="" style="endArrow=classic;html=1;rounded=0;strokeColor=#FFFFFF;" edge="1" parent="1">
          <mxGeometry width="50" height="50" relative="1" as="geometry">
            <mxPoint x="200" y="190" as="sourcePoint" />
            <mxPoint x="240" y="150" as="targetPoint" />
          </mxGeometry>
        </mxCell>
      </root>
    </mxGraphModel>
  </diagram>
</mxfile>
